# xmcd
#
# Track frame offsets: 
#        150
#        17607
#        31870
#        43037
#        61372
#        82175
#        101905
#        116082
#        131537
#        155590
#        180055
#        194550
#        214725
#        235145
#
# Disc length: 3471 seconds
#
# Revision: 0
# Processed by: cddbd v1.5.1PL0 Copyright (c) Steve Scherf et al.
# Submitted via: ExactAudioCopy v0.95a5
#
DISCID=bc0d8d0e
DTITLE=G.Q - Tribute to Marvin Gaye and Billy Stewart
DYEAR=1999
DGENRE=Oldies
TTITLE0=01 - Star In Your Eyes
TTITLE1=02 - If I Should Die Tonight
TTITLE2=03 - Strange Feelings
TTITLE3=04 - Summertime
TTITLE4=05 - Lets Get it On
TTITLE5=06 - Time For The Classics
TTITLE6=07 - Sad Girl
TTITLE7=08 - Sitting in the Park
TTITLE8=09 - Distant Lover
TTITLE9=10 - I Do Love You
TTITLE10=11 - Cross My Heart
TTITLE11=12 - If You Want My Love
TTITLE12=13 - Yesteryears
TTITLE13=14 - What's Going On
EXTD=
EXTT0=
EXTT1=
EXTT2=
EXTT3=
EXTT4=
EXTT5=
EXTT6=
EXTT7=
EXTT8=
EXTT9=
EXTT10=
EXTT11=
EXTT12=
EXTT13=
PLAYORDER=
